<?xml version="1.0" encoding="utf-8"?>
<!-- Generator: Adobe Illustrator 16.0.0, SVG Export Plug-In . SVG Version: 6.00 Build 0)  -->
<!DOCTYPE svg PUBLIC "-//W3C//DTD SVG 1.1//EN" "http://www.w3.org/Graphics/SVG/1.1/DTD/svg11.dtd">
<svg version="1.1" id="Layer_1" xmlns="http://www.w3.org/2000/svg" xmlns:xlink="http://www.w3.org/1999/xlink" x="0px" y="0px"
	 width="110px" height="37.709px" viewBox="0 0 110 37.709" enable-background="new 0 0 110 37.709" xml:space="preserve">
<path fill="#434952" d="M91.938,0.042V0h-0.812c-0.241,0-0.482,0.028-0.727,0.037c-8.187,0.314-15.053,5.85-17.332,13.378
	c-1.332-4.394-4.231-8.103-8.037-10.503C62.12,1.079,58.688,0,55.001,0H55c-8.509,0-15.714,5.665-18.063,13.418
	C34.589,5.665,27.384,0,18.875,0C8.468,0,0,8.467,0,18.875C0,29.284,8.468,37.75,18.875,37.75c8.509,0,15.714-5.664,18.062-13.418
	c2.168,7.16,8.479,12.538,16.135,13.317c0.379,0.039,0.764,0.043,1.149,0.06c0.261,0.013,0.517,0.041,0.779,0.041h0.812v-0.042
	c8.151-0.35,14.979-5.871,17.252-13.376c1.951,6.444,7.263,11.431,13.889,12.937c0.125,0.028,0.249,0.07,0.374,0.098
	c0.996,0.206,2.026,0.307,3.071,0.347c0.244,0.009,0.484,0.038,0.727,0.038h0.812v-0.042C101.966,37.28,110,29.008,110,18.875
	C110,8.74,101.966,0.471,91.938,0.042 M55.812,36.087V19.688H72.21C71.796,28.552,64.673,35.671,55.812,36.087 M91.938,36.087V1.665
	c9.136,0.427,16.439,7.972,16.439,17.211C108.377,28.112,101.072,35.658,91.938,36.087"/>
</svg>
